<svg xmlns='http://www.w3.org/2000/svg'>
  <g>
    <path class="cbc" d="M243,94s22-14,13-44c0,0-3.83,33.73-23.73,34.29A67.72,67.72,0,0,1,243,94Z" />
    <path class="cbc" d="M140,94a70,70,0,0,1,10.92-9.71C131,83.78,127,50,127,50,118,80,140,94,140,94Z" />
    <path class="cbcEsc" d="M256 50c8.4 29.3-12.8 43.7-12.8 43.7-12.6-13.6-31.4-21.8-51.7-21.8S152 80.1 139.8 93.7c0 0-21.1-14.3-12.8-43.7 0 0-8 11.2-8 23.8v70.5c0 23.9 10.7 45.6 29 58.7 0 0-8-8.5-8-26.9V159H243v17.1c0 18.4-8 26.9-8 26.9 18.3-13.1 29-34.8 29-58.7V73.8C264 61.2 256 50 256 50Z" />
  </g>
</svg>