<svg xmlns='http://www.w3.org/2000/svg' viewBox='0 0 384 384'>
  <g>
    <path class="cbcEsc" d="M192 72c-40.5 0-73 32-73 72.5V198a7.9 7.9 0 0 0 8.1 8.1 8.2 8.2 0 0 0 7.9-7.9V135c0.2 1.7 1.7 2.8 4.6 2.8 15.8 0 17-10.3 51.9-10.3s36.1 10.3 51.9 10.3c2.9 0 4.4-1.1 4.6-2.8V198.2a8.2 8.2 0 0 0 7.9 7.9A8.6 8.6 0 0 0 264 198V144.5C264 104 233 72 192 72Z" />
    <path class="cbcCmpl" d="M238.48,121.41l-2.42-23.18-10.43-7.91,1.71,24.18S235.34,119,238.48,121.41Z" />
    <path class="cbc" d="M264,143.32c0-2.13-.11-4.24-.3-6.32H259v42h5Z" />
    <path class="cbc" d="M227,116v-1.1a81.31,81.31,0,0,0-35-7.9v9Z" />
    <path class="cbc" d="M192,71.79A70.87,70.87,0,0,0,160,79L158,114a81,81,0,0,1,34-7.49Z" />
  </g>
</svg>