<svg xmlns='http://www.w3.org/2000/svg'>
  <path id="cabeloLedger" class="cbcCmpl" d="M266.47,126.92C251.12,111.57,265.19,112,248.19,95c-11.53-11.53-6.5-11.5-19.56-24.56-19.5-19.5-53.53-13.91-65-2.4-.26.26-9.78,9.29-17.94,9.29-7.86,0-15.5-.42-15.5,10.17,0,9.13-2.13,6-6.33,10.17-4,4,3.76,12.24-1,17s-11.72,9.78-7.83,13.67c4.58,4.58,1.7,10.8-3,15.5-4.18,4.18-6.15,11.85-1.83,16.17,7.2,7.2,4.24,12-1.79,18,0,0,8,3.29,14.64-1,4.53-2.94,6-6.43,6-14.85v-31c0-24.29,21.35-39.27,25.59-35,4.67,4.67,10.68-4.5,10.68-4.5,20.52,20.52,39.18,10.7,51.4,10.7,13.65,0,8.39,7.55,10.83,10,4.49,4.49,8.5.79,8.5,5.67,0,5.22-.92,8.89,4.69,14.5,5.12,5.12,6.33,7.92,2.38,11.88-8.63,8.63,4.68,11.7.13,16.25-7.28,7.28,9.24,10.61,1.47,18.38-6.36,6.36,4.93,8.41-.28,13.63,0,0,2.51,1.32,9.45-5.63,11.71-11.71,25.74-18.7,12.83-31.61C257.19,145.92,276.22,136.67,266.47,126.92Z" />
</svg>