<svg xmlns='http://www.w3.org/2000/svg'>
  <g>
    <path class="cmplEsc" d="M221,242c57,8,91,27,91,66v89H225l8.2-70.75C239.15,291.05,233.55,254.62,221,242Z" />
    <path class="cmpl" d="M233.3 326.3C239.1 291.1 231.5 253.7 219 241c0.2 0 40 3 72 23-3.5 3.7-38.3 41.7-38.3 41.7l27.8 15.7L242.7 397H225.5Z" />
    <path class="cmplEsc" d="M163,242c-57,8-91,27-91,66v89h87l-8.2-70.75C144.85,291.05,150.45,254.62,163,242Z" />
    <path class="cmpl" d="M150.8 326.3C144.9 291.1 152.5 253.7 165 241c-0.2 0-40 3-72 23 3.5 3.7 38.3 41.7 38.3 41.7l-27.7 15.7L141.3 397h17.2Z" />
  </g>
</svg>