<svg xmlns='http://www.w3.org/2000/svg'>
  <g>
    <path class="cbcEsc" d="M184.6 124.5c-0.6-1.4-7.1-5.3-20.8-5.9s-24.6 2-25.2 2.7-0.4 1.9-1.8 1.5-3.3 8.9-3.3 8.9 4 5.5 3.9 4 1.3-5 2.7-6.7 1.9-0.5 2.1 3.8a37.2 37.2 0 0 0 2 10.9c0.6 1.7 3.1 9.4 18.8 9.4s19.2-11.4 20.5-14.1 1.7-4.6 2.7-6.4S185.2 125.9 184.6 124.5Zm-8.1 21.8c-4.5 5.3-12.1 6.2-22.6 3.7s-10.1-17.4-10.1-20.3a8.9 8.9 0 0 1 3.8-7.6c3-2.4 8.3-2 16.5-2 18.4 0 18.6 9 18.6 12.4S181 141 176.5 146.3Z" />
    <path class="cbcEsc" d="M197.75,132.56c1.07,1.78,1.42,3.67,2.72,6.4s4.74,14.1,20.49,14.1,18.24-7.7,18.83-9.36a37.19,37.19,0,0,0,2-10.9c.24-4.26.71-5.57,2.13-3.79s2.84,5.31,2.72,6.74,3.91-4,3.91-4-1.9-9.24-3.32-8.88-1.18-.83-1.78-1.54S234,118,220.26,118.58s-20.26,4.48-20.85,5.91S196.69,130.78,197.75,132.56Zm3.55,0c0-3.44.24-12.44,18.6-12.44,8.18,0,13.5-.36,16.47,2a8.86,8.86,0,0,1,3.79,7.58c0,2.84.36,17.77-10.13,20.26s-18.06,1.66-22.57-3.67S201.31,136,201.31,132.56Z" />
    <path class="cbcClr" d="M192,121c-2.72,0-8,1.63-8,4s.41,7,1,7,4.16-1,7-1,6.41,1,7,1,1-4.63,1-7S194.84,121,192,121Z" />
  </g>
</svg>