<svg xmlns='http://www.w3.org/2000/svg'>
  <g class="cbcEsc">
    <path d="M264,144.5A72.5,72.5,0,1,0,191.5,217,72.5,72.5,0,0,0,264,144.5ZM238,175c-3.5,3.5-1,4-4,7-4.5,4.5-1,8-6,8a1.16,1.16,0,0,0-1,2c3,3,.5,7.5-1,6-2.24-2.24-4.17,0-6,0s.25-2.75-1-4-3.25,2-5,2c-2.06,0-.4,5.4-2,7s-5.71,4.29-7,3c-2-2-7,2-13,2s-11-4-13-2c-1.29,1.29-5.44-1.44-7-3s.06-7-2-7c-1.75,0-3.62-3.38-5-2s.73,4-1,4-3.76-2.24-6,0c-1.5,1.5-4-3-1-6a1.16,1.16,0,0,0-1-2c-5,0-1.51-3.53-6-8-3-3-.5-3.5-4-7-3-3,.5-5.5-3-9-4-4-9-36-3-42,3.19-3.19,1-8,4-11s0-4,4-8c2.52-2.52,1-3,4-6,2.71-2.71,3.73-1.73,6-4s2.25-3.25,5-6c2.5-2.5,4.63-.62,7-3s4.92-3,8-3c5,0,7.26,2,14,2s9-2,14-2c3.08,0,5.5.5,8,3s4.5.5,7,3c2.75,2.75,2.75,3.75,5,6s3.29,1.29,6,4c3,3,1.48,3.48,4,6,4,4,1,5,4,8s.81,7.81,4,11c6,6,1,38-3,42C237.5,169.5,241,172,238,175Z" />
    <path d="M215,172a3.7,3.7,0,0,1,4,4c0,.87,1.88,4,0,4-3.09,0-1-4-6-4-1.13,0-4-5-3-6C211.5,168.5,212.91,172,215,172Z" />
    <path d="M167.73,172a3.64,3.64,0,0,0-3.91,4c0,.87-1.88,4,0,4,3.09,0,1-4,6-4,1.13,0,4-5,3-6C171.31,168.5,169.81,172,167.73,172Z" />
  </g>
</svg>