<svg xmlns='http://www.w3.org/2000/svg'>
  <g>
    <path class="cbcClr" d="M139.94,94.48c-10.27,9.52-20.14,35.39-20.14,49.29L118.56,94.5S146.89,88,139.94,94.48Z" />
    <path class="cbcClr" d="M243.45,94.48C253.71,104,264,129.87,264,143.77l.42-49S236.5,88,243.45,94.48Z" />
    <path class="cbcEsc" d="M251.7 69.8c-16-7.5-51-11.1-60.1 0-10.8-11-44.8-7.3-60.3 0C112.1 78.7 119 114 119 114c0-15.2 20.9-19.5 20.9-19.5 20.3-20.3 51.6-15.7 51.6-15.7S222.7 74.2 243 94.5c0 0 20.8 4.3 20.8 19.6C263.8 114.1 270.9 78.7 251.7 69.8Z" />
    <path class="cbcClr" d="M192.2,78.8s-30.29,0-41.33,11S156.78,49.77,192.2,78.8Z" />
    <path class="cbcClr" d="M192,78.8s30.29,0,41.33,11S227.41,49.77,192,78.8Z" />
  </g>
</svg>