<svg xmlns='http://www.w3.org/2000/svg'>
  <g>
    <path class="cbcEsc" d="M192,24.49c-65,0-65,36-65,57.52v23H257V82C257,60.53,257,24.49,192,24.49Z" />
    <path class="cbcEsc" d="M103.1 103.5c3.2 5.1 15.2 11 22.1 12.2l2.7-5.2c1.4-3.2 125.9-3.2 127.2 0l2.7 5.2c7-1.2 19.6-7 22.6-12.2 5.3-9-26.4-0.1-89.4-0.1C135 103.4 97.8 95.2 103.1 103.5Z" />
    <path class="cbcClr" d="M274.75,98.53c-10.9,0-41.1,4.36-82.86,4.36-43,0-72-4.36-82.86-4.36s-5.85,5-5.85,5c-3.61-6.06,28.32.39,88.71.39,59,0,92.32-6.45,88.71-.39C280.61,103.48,285.63,98.53,274.75,98.53Z" />
  </g>
</svg>