<svg xmlns='http://www.w3.org/2000/svg' id='svg' viewBox='0 0 384 384'>
  <g>
    <path class="cbcCmplEsc" d="M191.6 73c24 0 43.4 11 57.4 28a15.3 15.3 0 0 0 10.5-15c0-12.9-17.5-57.7-60.6-62.1a72.9 72.9 0 0 0-14.7 0C141.1 28.5 123.6 73.2 123.6 86c0 11 9.4 16 9.4 16C147 85 167.6 73 191.6 73Z" />
    <path class="cbcCmpl" d="M191.7 70.3C147.9 70.4 131.8 99 135.9 99H247.5C251.7 99 235.6 70.4 191.7 70.3Z" />
    <ellipse class="cbcCmpl" cx="192" cy="53.5" rx="24" ry="18.5" />
    <polygon class="cbcClr" points="198.9 38.8 191.6 46.7 184.3 38.8 172 60 179.6 65.5 185.1 48.7 191.6 57.1 198 48.7 203.5 65.5 211.2 60 198.9 38.8" />
  </g>
</svg>