<svg xmlns='http://www.w3.org/2000/svg' viewBox='0 0 384 384'>
  <path id="bigodeMarioNietzsche" class="cbcEsc" d="M265.68,156.18c-5.33,0-9.34,3.24-9.34,7.28a12.23,12.23,0,0,1,7.18-2.49c5.65,0,10,7.28,6.43,12.26-4.48,6.28-14.26,3.75-18.59-.58-17-17-39.53-28.66-59.79-10.73-20.26-17.92-42.82-6.23-59.79,10.73-4.33,4.33-14.11,6.86-18.59.58-3.55-5,.78-12.26,6.43-12.26a12.23,12.23,0,0,1,7.18,2.49c0-4-4-7.28-9.34-7.28-8.91,0-15.16,7.45-15.16,16.67,0,15.4,16.69,28,38.67,28a84.18,84.18,0,0,0,50.59-17.49,81.9,81.9,0,0,0,50.59,17.49c22,0,38.67-12.58,38.67-28C280.84,163.63,274.59,156.18,265.68,156.18Z" />
</svg>