<svg xmlns='http://www.w3.org/2000/svg' viewBox='0 0 384 384'>
  <g>
    <path class="cbc" d="M271.1 16.1C271.6 48 255.8 88.5 249 102L229 83C235.7 44.4 270.4-21.7 271.1 16.1Z" />
    <path class="cbcEsc" d="M246 33c11.8-25.4 24-41.6 25.1-16.9C271.9 34.7 266 54 266 54c2.9-13.7-9.5-28-16-22C249 32.9 247.8 33.1 246 33Z" />
    <path class="cbc" d="M112.1 16.1C111.5 48 127.2 88.5 134 102l20-19C147.3 44.4 112.8-21.7 112.1 16.1Z" />
    <path class="cbcEsc" d="M137 33C125.6 7.8 113-8.6 112.1 16.1 111.5 35.2 117 54 117 54c-2.9-13.7 9.5-28 16-22C134 32.9 135.2 33.1 137 33Z" />
  </g>
</svg>