<svg xmlns='http://www.w3.org/2000/svg'>
  <g>
    <polygon class="cbcEsc" points="162 78 144.8 68 162.3 68.1 158.3 44.7 172.7 56.3 176.9 14.8 190.6 40.9 201.1 20.7 209 50.3 226.1 42.1 220.1 64.9 238.3 61.3 221 78 162 78" />
    <path class="cbcEsc" d="M264 144a72.2 72.2 0 0 0-72-72.2c-41 0-73 32.5-73 72.2a66.5 66.5 0 0 0 3 21v-5.2c0-2.4 2-1.8 2-1.8l-0.1-9.3 3.5 1.9 1.5-14.5 5.2 3.3 3.1-15 7.1 5.4 3.4-14.9 8.6 8 6.8-16.5 9.7 11.1 8.1-15.5L192 115.5l11.1-13.5 8.1 15.6 9.7-11.1 6.8 16.5 8.6-8 3.4 14.9 7.1-5.4 3.1 15 5.2-3.3 1.5 14.6 3.5-1.9L259 158s2-0.4 2 2v5A66.5 66.5 0 0 0 264 144Z" />
    <path class="cbcClr" d="M191.6 71.8a72.1 72.1 0 0 1 18.5 2.4c-4-2.5-9.9-4.1-16.5-4.1a34.4 34.4 0 0 0-13.7 2.7A72.4 72.4 0 0 1 191.6 71.8Z" />
    <path class="cbcClr" d="M175,73.72c4.25-2.78,10.76-4.55,18.07-4.55,8.36,0,15.69,2.33,19.76,5.82,2.08.64,4.11,1.38,6.1,2.2-3.24-6.23-13.59-10.8-25.86-10.8-11.28,0-20.93,3.85-24.94,9.32A71.4,71.4,0,0,1,175,73.72Z" />
  </g>
</svg>