<svg xmlns='http://www.w3.org/2000/svg'>
  <g id="bandanaShika">
    <path class="crpClr" d="M313 358v26.2s-11.9 2.6-16.1 3.5-7.9-1-7.9-5.7V367.7c0-2.7 0-6.1 5.1-6.1C297.7 361.6 313 358 313 358Z" />
    <path class="crpEsc" d="M293.75,361.43c-5.18,0-5.16,3.46-4.75,6.19v14.5c-.41,4.33,2.74,6.27,6.52,5.94-2.45.07-4.58-2.49-4.52-4.06V365.44C290.94,363.56,292.24,361.43,293.75,361.43Z" />
    <path class="crpEsc" d="M296.9 365.8A1.7 1.7 0 0 1 295 367a1.4 1.4 0 0 1-1-1.8A1.7 1.7 0 0 1 296 364 1.4 1.4 0 0 1 296.9 365.8Z" />
    <path class="crpEsc" d="M295.93,374.82A1.66,1.66,0,0,1,294,376a1.35,1.35,0,0,1-1-1.78A1.66,1.66,0,0,1,295,373,1.35,1.35,0,0,1,295.93,374.82Z" />
    <path class="crpEsc" d="M297.93,383.82A1.66,1.66,0,0,1,296,385a1.35,1.35,0,0,1-1-1.78A1.66,1.66,0,0,1,297,382,1.35,1.35,0,0,1,297.93,383.82Z" />
    <path class="crpEsc" d="M312.48,370.81a1.68,1.68,0,0,0-1.33-.68c-.94,0-1.94.86-1.94,2.47a.5.5,0,0,0,1,0c0-1.38,1-1.79,1.47-1.18a1.87,1.87,0,0,1,.31,1.18V380a2,2,0,0,1-1.45,1c-1.48,0-3.13-3.44-3.13-8.39s1.65-8.39,3.13-8.39c.65,0,1.19.63,1.52,1.15a.5.5,0,1,0,.84-.54,2.87,2.87,0,0,0-2.36-1.61c-2.36,0-4.13,4-4.13,9.39a20.84,20.84,0,0,0,.37,4l-1.59,4.77a.5.5,0,0,0,.47.66h4.76l.09,0h0a2.87,2.87,0,0,0,2.37-1.61l.08-.27V372.6A2.89,2.89,0,0,0,312.48,370.81Zm-4.75,7.54a7.57,7.57,0,0,0,1.41,2.65h-2.3Z" />
  </g>
</svg>