<svg xmlns='http://www.w3.org/2000/svg'>
  <g>
    <path class="crpClr" d="M220.4 244.9a3.8 3.8 0 0 1 0.4-1.5c2.8-10.5-3.1-13-1.6-11.6s-2 4.8-9.6 7.8-16.2 10.4-16.2 10.4l3.9 4.9S220.4 250.9 220.4 244.9Z" />
    <path class="crpClr" d="M162.9 244.5c0 6 23.9 10.4 23.9 10.4l3.9-5s-8.6-7.3-16.2-10.3S163.5 233 165 231.7s-5 1.2-2.2 11.6A11.2 11.2 0 0 1 162.9 244.5Z" />
    <path class="crpClr" d="M167.2 261.4a13 13 0 0 1-1.9-0.7c0.7 3.7 1.6 7.9 2.9 12.4 2.5 9.3 5.6 19.8 8.8 29.9 1.5-7.8 9.6-20.8 14-20.8s12 14.3 13.7 20.8l11-41.5C201.5 267.1 183.7 267.1 167.2 261.4Z" />
    <path class="crpEsc" d="M198.1 274H184s-5.4 5.5-4.3 11c0.9 4.5 11.4 16.2 11.4 16.2s10.5-11.7 11.4-16.2C203.5 279.5 198.1 274 198.1 274Z" />
    <path class="crp" d="M180.33,264.42a30.81,30.81,0,0,0,.59,5.47c.65,3,2,5.11,5,5.11H194c3.25,0,4.46.89,4.46,3.19,0,0,4.25-1.84,5.45-10,.2-1.36,0-2.56-3-3.28A73.57,73.57,0,0,1,180.33,264.42Z" />
    <path class="crpEsc" d="M180.37,265.23a4.15,4.15,0,0,0,4.51,3.77h13.54c5.51,0,4.63,3.75,4.63,3.75s1.56-4.42.78-7.44A72.67,72.67,0,0,1,180.37,265.23Z" />
  </g>
</svg>