<svg xmlns='http://www.w3.org/2000/svg' viewBox='0 0 384 384'>
  <g>
    <path class="crpEsc" d="M75 289a52.6 52.6 0 0 0-3 18.8V314c34.8-24.5 75.9-38.7 120-38.7S277.2 289.5 312 314v-6.2a54 54 0 0 0-3.3-18.6A216 216 0 0 0 75 289Z" />
    <path class="crpClr" d="M311 297c-34.7-22.7-76-36.3-119.4-36.3A215.1 215.1 0 0 0 73 296a55.7 55.7 0 0 0-1 9 214.9 214.9 0 0 1 119.6-36.3c43.9 0 85.4 14.1 120.4 37.3A58.1 58.1 0 0 0 311 297Z" />
    <path class="crpEsc" d="M72,338.21v22.55c34.77-24.51,75.9-38.69,120-38.69s85.23,14.19,120,38.69V337.87C277.72,316,234.57,301.5,192,301.5S106.25,316.4,72,338.21Z" />
    <path class="crpClr" d="M312,344c-34.76-22.72-76.58-36.54-120-36.54S106.75,321.35,72,344l-.07,8.25c35-23.16,76.12-36.8,120-36.8s85,13.42,120,36.59Z" />
    <path class="crpEsc" d="M72 390l0 7H97.9A204.2 204.2 0 0 1 286 397h26v-7.1c-34.3-21.9-77.4-36.5-120-36.5S106.3 368.2 72 390Z" />
    <path class="crpClr" d="M72,397H83.22a213.59,213.59,0,0,1,216.72,0H312c-34.75-22.71-77-37.53-120.42-37.53S106.74,374.31,72,397Z" />
  </g>
</svg>