<svg xmlns='http://www.w3.org/2000/svg'>
  <g>
    <path class="crpEsc" d="M283 261a204 204 0 0 0-34-13.2c-14.6-21.8-23.9-24.7-23.9-24.7-1.4 66.3-32 96.7-33.1 97.7 0 0-32-31.9-33.4-99.1 0 0-9.8 3.1-25.1 26.5A195.9 195.9 0 0 0 101 261a52.8 52.8 0 0 0-29 47v89H312V308A51.8 51.8 0 0 0 283 261Z" />
    <path class="crpClr" d="M165,266l-9.52-18.64a1,1,0,0,0-.64-.52l-17.45-4.52-1.2,1.68c.1.07,17.71,4.66,17.71,4.66L167,274Z" />
    <path class="crpClr" d="M160,239l-16.75-4.16q-.66.77-1.35,1.61C142,236.53,160,241,160,241,159.92,240.32,160.07,239.69,160,239Z" />
    <path class="crpClr" d="M159,230l-9.31-1.91c-.51.47-1,1-1.58,1.51.13.13,10.86,2.41,10.89,2.41C159,231.33,159,230.68,159,230Z" />
    <path class="crpClr" d="M185,397c0-.15-61.51-120-61.51-120h-2.11l61.51,120Z" />
    <path class="crpClr" d="M220,262.59l7.61-15.22a1,1,0,0,1,.64-.52l17.45-4.52,1.2,1.68c-.1.07-17.71,4.66-17.71,4.66l-11.57,23Z" />
    <path class="crpClr" d="M223.91,239.34l16-4.5q.66.77,1.35,1.61s-17.49,5-17.53,5Z" />
    <path class="crpClr" d="M224.64,230.12l8.79-2c.51.47,1,1,1.58,1.51l-10.49,2.54Z" />
    <path class="crpClr" d="M250.83,249.78l-17.61,4.33a1,1,0,0,0-.66.52l-41,81.48-41-81.48a1,1,0,0,0-.66-.52l-17.61-4.33-1.1,1.72c.09.06,17.78,4.43,17.78,4.43L190.7,338.8c0,.06.43.63.89.63s.85-.57.88-.63l41.67-82.86s17.7-4.38,17.78-4.43Z" />
    <path class="crpClr" d="M255.42,257.26l-18.12,4.68a1,1,0,0,0-.64.52l-45.07,89.86-45.07-89.86a1,1,0,0,0-.64-.52l-18.12-4.68-1,1.75c.08,0,18.19,4.76,18.19,4.76L190.71,355c.4.87,1.29.88,1.76,0l45.77-91.26L256.43,259Z" />
    <path class="crpClr" d="M259.84,265.21,242,270.06a1,1,0,0,0-.63.52L191.56,370l-49.83-99.44a1,1,0,0,0-.63-.52l-17.83-4.85-1,1.81,17.84,4.85L190.66,372.7c.46,1,1.34.94,1.78,0L243,271.87,260.8,267Z" />
    <path class="crpClr" d="M198.1,397c0-.15,61.51-120,61.51-120h2.11c0,.15-61.51,120-61.51,120Z" />
    <path class="crpClr" d="M248.59,277l-57,112.25L134.57,277h-2.11c0,.15,58.14,114.94,58.14,114.94.68,1.13,1.4,1,2,0,0,0,58.14-114.78,58.14-114.94Z" />
    <path class="crpClr" d="M123.67,264.84a144.66,144.66,0,0,0-15.43,6.09C86.36,281.37,84,308.46,84,319.62V397h2V319.62c0-13.39,3-37.29,23.1-46.89a134.53,134.53,0,0,1,13.2-5.31C122.75,266.55,123.21,265.68,123.67,264.84Z" />
    <path class="crpClr" d="M113,280.67c-14.5,11.16-17,31.92-17,44.83V397h2V325.5c0-12.39,2.34-32.3,16-43Z" />
    <path class="crpClr" d="M118.8,291.41C111,297.52,107,308.31,107,323.58V397h2V323.58c0-14.43,3.63-24.62,10.77-30.39Z" />
    <path class="crpClr" d="M126.32,305.28l-1.08-2c-4.33,5.94-4.1,14.25-3.92,20.84,0,1.27.07,72.86.07,72.86h2s0-71.63-.07-72.92C123.15,317.86,123,310.6,126.32,305.28Z" />
    <path class="crpClr" d="M136.91,324.84l-2.13-3.92c0,1.75.09,3.5.21,5.2.11,1.49.22,70.89.22,70.89h2s-.11-69.57-.22-71Q137,325.4,136.91,324.84Z" />
    <polygon class="crpClr" points="147 343.46 147 397 149 397 149 347.15 147 343.46" />
    <polygon class="crpClr" points="160 367.46 160 397 162 397 162 371.15 160 367.46" />
    <polygon class="crpClr" points="220 374.77 220 397 222 397 222 371.07 220 374.77" />
    <polygon class="crpClr" points="233 350.7 233 397 235 397 235 346.99 233 350.7" />
    <path class="crpClr" d="M245.2,328.11,245,397h1.8l.2-70.89c0-.45,0-.91,0-1.36Z" />
    <path class="crpClr" d="M256.9,306.44c2.68,5.18,2.5,11.86,2.34,17.65,0,1.29-.07,72.91-.07,72.91h2s0-71.59.07-72.86c.17-6.2.38-13.94-3.21-19.78Z" />
    <path class="crpClr" d="M264.45,292.45l-1,1.82c6.32,5.92,9.53,15.74,9.53,29.31V397h2V323.58C275,309.15,271.45,298.72,264.45,292.45Z" />
    <path class="crpClr" d="M270.57,281.12l-1,1.81C282.71,293.76,285,313.28,285,325.5V397h2V325.5C287,312.76,284.57,292.38,270.57,281.12Z" />
    <path class="crpClr" d="M274.76,270.93a151.19,151.19,0,0,0-15.66-6.22q.69,1.28,1.4,2.6a140.86,140.86,0,0,1,13.4,5.43c20.1,9.59,23.1,33.5,23.1,46.89V397h2V319.62C299,308.46,296.64,281.37,274.76,270.93Z" />
  </g>
</svg>