<svg xmlns='http://www.w3.org/2000/svg'>
  <g>
    <path class="crpEsc" d="M312,397V308a51.84,51.84,0,0,0-29-47,200.93,200.93,0,0,0-54.7-17.92c7,1.76,10.7,16.25,10.7,36.84L238.77,397Z" />
    <path class="crpEsc" d="M154.2 243.3A195.4 195.4 0 0 0 101 261a52.8 52.8 0 0 0-29 47v89h72l-0.3-115.9C143.7 261.3 147.6 246.3 154.2 243.3Z" />
    <path class="cmpl" d="M252.1 281s13-5 13-9.5S238.2 245.7 233 242H149c-5.2 3.7-32.1 25-32.1 29.5s13 9.5 13 9.5-23.5 16.5-22 22c1.4 5.2 26.2 47 28.8 94H245.3c2.6-47 27.4-88.8 28.8-94C275.6 297.5 252.1 281 252.1 281Z" />
  </g>
</svg>