<svg xmlns='http://www.w3.org/2000/svg'>
  <path class="crpEsc" d="M225.95,295.54a10.86,10.86,0,0,1,2.64,6.71c0,4-4.15,2.84-4.15-.17a7.83,7.83,0,0,0-1.38-4.65c0,4.47-4.9,4.82-4.9-1.38s-5.4-9.29-7.16-9.29c0,0,3.06,5,.06,9.08-2.17,3-6.72,2.26-6.72-3.74,0-4.47-3.52-9-3.52-9s.38,6.88-4.65,6.88c-1.7,0-3.25-11.19-4.39-12h-.12l0,.85,0,.15h-.12c-1.14-.15-2.69,11-4.39,11-5,0-4.65-6.88-4.65-6.88s-3.52,4.48-3.52,9c0,6-4.56,6.71-6.72,3.74-3-4.11.06-9.08.06-9.08-1.76,0-7.16,3.1-7.16,9.29s-4.9,5.85-4.9,1.38a7.83,7.83,0,0,0-1.38,4.65c0,3-4.15,4.13-4.15.17a10.86,10.86,0,0,1,2.64-6.71S139,303.11,139,316.88s24.37,25,52.65,25c29.72,0,52.69-11.29,52.69-25S225.95,295.54,225.95,295.54Z" />
</svg>