<svg xmlns='http://www.w3.org/2000/svg'>
  <g class="crpEsc">
    <rect x="185" y="240" width="1" height="157" />
    <path d="M163,312H104.74s-6.49,18,7.05,18h44.16C169.49,330,163,312,163,312Z" />
    <path d="M219.74,312H278s6.49,18-7.05,18H226.79C213.24,330,219.74,312,219.74,312Z" />
    <path d="M227 223.8c3.8 5-35.9 15.8-35.9 15.8s5.2 27.5 13.1 25c4.4-1.4 12.1-4.7 19.8-7.4 9.7-3.4 16.4-11.1 12.3-17.6C233.9 235.6 227 223.8 227 223.8Z" />
    <path d="M155.7 223.8c-3.7 5 35.9 15.8 35.9 15.8s-5.2 27.5-13.1 25c-4.4-1.4-12.1-4.7-19.8-7.4C149 253.6 142.3 246 146.4 239.5 148.9 235.6 155.7 223.8 155.7 223.8Z" />
  </g>
</svg>