<svg xmlns='http://www.w3.org/2000/svg'>
  <g class="crpEsc">
    <g>
      <circle class="crpEsc" cx="191.81" cy="364.5" r="4.5" />
      <path class="crpClr" d="M191.81,361.17a3.33,3.33,0,1,0,3.33,3.33A3.33,3.33,0,0,0,191.81,361.17Zm-1.93,4a.55.55,0,0,1,0-1.09.53.53,0,0,1,.16,0l1.27-1.27a.53.53,0,0,1,0-.16.55.55,0,1,1,.55.55.53.53,0,0,1-.16,0l-1.27,1.27a.53.53,0,0,1,0,.16A.55.55,0,0,1,189.87,365.2Zm3.68-.21h-.07l-1.34,1.34a.51.51,0,0,1,0,.07.55.55,0,1,1-.55-.55.53.53,0,0,1,.24.06l1.22-1.22a.53.53,0,0,1-.06-.24.55.55,0,1,1,.55.55Z" />
    </g>
    <g>
      <circle class="crpEsc" cx="192.97" cy="332.72" r="4.5" />
      <path class="crpClr" d="M193,329.39a3.33,3.33,0,1,0,3.33,3.33A3.33,3.33,0,0,0,193,329.39Zm-1.93,4a.55.55,0,0,1,0-1.09.53.53,0,0,1,.16,0l1.27-1.27a.53.53,0,0,1,0-.16.55.55,0,1,1,.55.55.53.53,0,0,1-.16,0l-1.27,1.27a.53.53,0,0,1,0,.16A.55.55,0,0,1,191,333.42Zm3.68-.21h-.07l-1.34,1.34a.51.51,0,0,1,0,.07.55.55,0,1,1-.55-.55.53.53,0,0,1,.24.06l1.22-1.22a.53.53,0,0,1-.06-.24.55.55,0,1,1,.55.55Z" />
    </g>
    <g>
      <circle class="crpEsc" cx="192.97" cy="300.94" r="4.5" />
      <path class="crpClr" d="M193,297.61a3.33,3.33,0,1,0,3.33,3.33A3.33,3.33,0,0,0,193,297.61Zm-1.93,4a.55.55,0,0,1,0-1.09.53.53,0,0,1,.16,0l1.27-1.27a.53.53,0,0,1,0-.16.55.55,0,1,1,.55.55.53.53,0,0,1-.16,0l-1.27,1.27a.53.53,0,0,1,0,.16A.55.55,0,0,1,191,301.64Zm3.68-.21h-.07l-1.34,1.34a.51.51,0,0,1,0,.07.55.55,0,1,1-.55-.55.53.53,0,0,1,.24.06l1.22-1.22a.53.53,0,0,1-.06-.24.55.55,0,1,1,.55.55Z" />
    </g>
    <g>
      <circle class="crpEsc" cx="192.97" cy="269.16" r="4.5" />
      <path class="crpClr" d="M193,265.83a3.33,3.33,0,1,0,3.33,3.33A3.33,3.33,0,0,0,193,265.83Zm-1.93,4a.55.55,0,0,1,0-1.09.53.53,0,0,1,.16,0l1.27-1.27a.53.53,0,0,1,0-.16.55.55,0,1,1,.55.55.53.53,0,0,1-.16,0l-1.27,1.27a.53.53,0,0,1,0,.16A.55.55,0,0,1,191,269.86Zm3.68-.21h-.07L193.31,271a.51.51,0,0,1,0,.07.55.55,0,1,1-.55-.55.53.53,0,0,1,.24.06l1.22-1.22a.53.53,0,0,1-.06-.24.55.55,0,1,1,.55.55Z" />
    </g>
  </g>
</svg>