<svg xmlns='http://www.w3.org/2000/svg'>
  <g>
    <path class="crpClr" d="M214.55,289.5c-9.88,11.5-11.07,10.5-13.44,6.5-1.16-2-3.55-6.43-5.69-10.49a13.3,13.3,0,0,1-3.89.75,13.8,13.8,0,0,1-4.16-.8c-2.15,4.07-4.56,8.58-5.72,10.54-2.37,4-3.56,5-13.44-6.5-5.23-6.08-15.1-12.16-20.66-20,.53,10.21,5.64,127.52,5.64,127.52h76.54s5.23-120,5.61-126.93c0,0,0-.4.11-1.08C230,277.08,219.87,283.31,214.55,289.5Z" />
    <path class="crpEsc" d="M192.3 294.5a1.1 1.1 0 0 1-1.5 0L182 285.8a1.1 1.1 0 0 1 0-1.5l8.7-8.7a1.1 1.1 0 0 1 1.5 0l8.7 8.7a1.1 1.1 0 0 1 0 1.5Z" />
    <path class="crpEsc" d="M182,288.76a1.07,1.07,0,0,1,0-1.52l.48-.48c-2.35,0-12,.06-15.67.62-4.17.64-6.87,1.88-7.37,4.5-.62,3.28-1.87,10.63-2.37,14.88s2.56,5.69,4.12,5.75c4.38.17,4.38,0,14.38,0,7.84,0,12.81-10.88,14.6-15.59Z" />
    <path class="crpEsc" d="M225.86,306.75c-.5-4.25-1.75-11.6-2.37-14.87-.5-2.62-3.2-3.86-7.37-4.5-3.61-.55-13.1-.61-15.59-.61l.48.48a1.08,1.08,0,0,1,0,1.52L192.79,297c1.81,4.74,6.77,15.52,14.57,15.52,10,0,10,.17,14.38,0C223.31,312.44,226.36,311,225.86,306.75Z" />
    <path class="crpClr" d="M233.6 238.7c1 1.5 4.3 8.3-10 15.8 0 0-30.6 17.4-32.3 18.4-1.6-1-32.3-18.4-32.3-18.4C144.8 247 148 240.3 149 238.8c-16.9 23.3 6.9 37.4 19.2 46.2 10.6 7.5 12.2 8.5 14.6 4.5l8.6-16.2 8.7 16.4c1.8 3.3 2 3.9 14.5-4.7S250.6 262 233.6 238.7Z" />
  </g>
</svg>