<svg xmlns='http://www.w3.org/2000/svg'>
  <g>
    <path class="crpEsc" d="M232.1 243.4c-1.8 12.1-19.3 21.7-40.5 21.7S153 255.5 151.2 243.4l-1 0.2c1.1 12.2 19.7 22.5 41.5 22.5s40.4-10.4 41.5-22.6Z" />
    <path class="crpEsc" d="M191.6 265.6c3.7 0 6.8 9.7 6.8 13.5a6.8 6.8 0 0 1-13.5 0C184.9 275.3 187.9 265.6 191.6 265.6Z" />
    <path class="crp" d="M192 267.6v2.6c-1.1 1.9-2.7 6.2-2.7 8.9a2.8 2.8 0 0 0 2.8 2.8v2a4.8 4.8 0 0 0 4.8-4.7C196.8 275.1 193.6 267.6 192 267.6Zm0 14.2V270.3c1.1 1.9 2.8 6.1 2.8 8.8A2.8 2.8 0 0 1 192 281.8Z" />
    <circle class="crp" cx="192" cy="266" r="1" />
  </g>
</svg>