<svg xmlns='http://www.w3.org/2000/svg'>
  <g id="coleteShika">
    <rect class="crpClr" x="188" y="290" width="7" height="107" />
    <path class="crpEsc" d="M230.3 280.1c-6.2 6.2-20.8 11.2-31 11.2-4.1 0-6.3 1.3-6.3 5.8V397h91V323.3Z" />
    <path class="crpEsc" d="M153.7 280.1c6.2 6.2 20.8 11.2 31 11.2 4.1 0 6.3 1.3 6.3 5.8V397H100V323.3Z" />
    <path class="crp" d="M196.5,386.08a.5.5,0,0,1-.5-.5v-37a.5.5,0,1,1,1,0v37A.5.5,0,0,1,196.5,386.08Z" />
    <path class="crp" d="M187.5,386.08a.5.5,0,0,1-.5-.5V360.5a.5.5,0,0,1,1,0v25.08A.5.5,0,0,1,187.5,386.08Z" />
    <path class="crp" d="M196.5,307.08a.5.5,0,0,1-.5-.5v-7.25c0-2.93,1.89-4.75,4.92-4.75A55.14,55.14,0,0,0,214,292a.5.5,0,0,1,.35.94,55.44,55.44,0,0,1-13.47,2.64c-2.49,0-3.92,1.37-3.92,3.75v7.25A.5.5,0,0,1,196.5,307.08Z" />
    <path class="crp" d="M187.5,307.08a.5.5,0,0,1-.5-.5v-7.05c0-2.8-1.07-3.95-3.7-3.95a69.47,69.47,0,0,1-16-2.63.5.5,0,1,1,.32-.95,68.07,68.07,0,0,0,15.71,2.58c3.21,0,4.7,1.57,4.7,4.95v7.05A.5.5,0,0,1,187.5,307.08Z" />
  </g>
</svg>