<svg xmlns='http://www.w3.org/2000/svg'>
  <g id="pescoceiraShika">
    <path class="crpEsc" d="M230,206c-10,6-24,11-38,11-13,0-29-4-38-11a37.32,37.32,0,0,0-14.7,10.83c-5.62,6.25-12.21,15.5-8.34,38s9.8,35.26,13.18,36.25c3.57,1,14.08-1.06,12.6-11.49-1.82-12.82-4.07-33.46-4.07-33.46a118.28,118.28,0,0,1,40.26-6.06c6.77,0,25.26.69,38.25,5.56,0,0-1.86,19.07-4,34-1.48,10.44,8.94,12.53,12.5,11.49,3.38-1,9.31-13.75,13.18-36.25s-2.62-31.75-8.24-38C241.79,213.63,238.57,209.58,230,206Z" />
    <path class="crp" d="M138.7 237.1c0 12.2 6 43.3 8.2 54.2a13 13 0 0 0 3.2-0.6c-2.1-10.9-8.2-44.1-8.2-53.7 0-12.1 4-21.7 19.2-27-1.5-0.7-2.6-1.2-4-2C145.9 212.5 138.7 220.6 138.7 237.1Z" />
    <path class="crp" d="M236.78,291.27c2.16-10.86,8.14-42,8.14-54.15,0-16.63-7.72-24.63-18.92-29.12-1.42.76-2.52,1.34-4,2,15.4,5.23,19.77,14.79,19.77,27,0,9.52-6.13,42.6-8.21,53.57A12.88,12.88,0,0,0,236.78,291.27Z" />
  </g>
</svg>