<svg xmlns='http://www.w3.org/2000/svg'>
  <g>
    <path class="crpEsc" d="M231.69,308.58c-.13,2.75.5,5.5,4.75,8.5L284,343.43c8.61,3.8,13.91,4.29,20.16-3.21s16.77-30.39,20-42.14,1.5-13-5.75-19.75-20.5-15.5-27.25-18a42.42,42.42,0,0,0-11-2.75s-11-9-23.5-13c-3.54-1.13-6.63-.94-10.73,5.59C238.45,262.11,232.79,285.17,231.69,308.58Z" />
    <path class="crp" d="M321.1,280.83c-3.63,20.8-19.14,51.68-22.31,54.85-3.65,3.65-8.16,3.65-12,1.59l-43.53-24.19c-1.63-.91-5.51-3.7-4.33-11.08,2.5-15.62,5.79-40.59,19.66-56.76-.64-.23-1.29-.46-1.93-.67-3.54-1.13-6.63-.94-10.73,5.59-7.51,11.95-13.17,35-14.27,58.41-.13,2.75.5,5.5,4.75,8.5L284,343.43c8.61,3.8,13.91,4.29,20.16-3.21s16.77-30.39,20-42.14C327,287.94,326.07,285.62,321.1,280.83Z" />
    <circle class="crpClr" cx="268" cy="309" r="4" />
    <path class="crpEsc" d="M151.8 308.6c0.1 2.8-0.5 5.5-4.7 8.5L99.5 343.4c-8.6 3.8-13.9 4.3-20.2-3.2s-16.8-30.4-20-42.1-1.5-13 5.8-19.7 20.5-15.5 27.3-18a42.4 42.4 0 0 1 11-2.7s11-9 23.5-13c3.5-1.1 6.6-0.9 10.7 5.6C145 262.1 150.7 285.2 151.8 308.6Z" />
    <path class="crp" d="M62.35,280.83c3.63,20.8,19.14,51.68,22.31,54.85,3.65,3.65,8.16,3.65,12,1.59l43.53-24.19c1.63-.91,5.51-3.7,4.33-11.08-2.5-15.62-5.79-40.59-19.66-56.76.64-.23,1.29-.46,1.93-.67,3.54-1.13,6.63-.94,10.73,5.59,7.51,11.95,13.17,35,14.27,58.41.13,2.75-.5,5.5-4.75,8.5L99.45,343.43c-8.61,3.8-13.91,4.29-20.16-3.21s-16.77-30.39-20-42.14C56.46,287.94,57.38,285.62,62.35,280.83Z" />
    <circle class="crpClr" cx="115" cy="309" r="4" />
  </g>
</svg>