<svg xmlns='http://www.w3.org/2000/svg'>
  <g>
    <polygon class="cmpl" points="234.34 282 148.79 282 131.87 301.94 191.95 370.85 251.01 302.25 234.34 282" />
    <path class="crpClr" d="M192.7 287c-17.3 0-24.6 9-24.6 12.1s2 7 26.5 9 28.3 5.6 30.6 7.7a13.4 13.4 0 0 1 3.3 4.9l16.2-19-7.2-9.3L234 299H215.1S210.9 287 192.7 287Z" />
    <path class="crpClr" d="M151.2 286l-12.9 15.3 7.7 8.9s-2.7-8.5 2.3-15.6c5.2-7.4 11.1-8.6 11.1-8.6Z" />
    <polygon class="crpClr" points="217.7 286 225 286 222.5 289.9 217.7 286" />
    <path class="crpClr" d="M185.2 356l6.8 7.9 6.7-7.9C196 357.3 187.8 357.3 185.2 356Z" />
    <path class="crpClr" d="M206.2 338.9c0-10.4-14.6-6.8-24.6-6.8-8.3 0-17.9-2-23.8-7.8l15.7 18.2s1.2-1.8 7-1.8c11 0 8.7 7.5 8.7 7.5S206.2 349.4 206.2 338.9Z" />
  </g>
</svg>