<svg xmlns='http://www.w3.org/2000/svg'>
  <g class="crpEsc">
    <path d="M279,259v42h33A53.18,53.18,0,0,0,279,259Z" />
    <path d="M252,248.58v57.18c4.33-2.66,8.23-4.78,11.06-5.18V252.3Q257.71,250.35,252,248.58Z" />
    <path d="M131,248.67q-5.52,1.67-11,3.68V300.5c3.12,0,11,5.19,11,5.19Z" />
    <path d="M100.74,261a51.58,51.58,0,0,0-28.45,40H104V259.49C102.91,260,101.82,260.51,100.74,261Z" />
    <path d="M183,319V240.2a206.79,206.79,0,0,0-36,4.54v71.17s5,3.09,10,3.09Z" />
    <path d="M236,315.87V244.58a206,206,0,0,0-37-4.46V319h26.92C230.38,319,236,315.87,236,315.87Z" />
  </g>
</svg>