<svg xmlns='http://www.w3.org/2000/svg'>
  <g>
    <path class="crp" d="M229,243c-1.89-.34-4.09-.71-6-1-7.32,4.7-18.65,7.67-31.42,7.67s-24.25-3-31.58-7.67c-1.91.29-4.11.66-6,1,8,6.61,22,10.87,37.58,10.87S221,249.6,229,243Z" />
    <path class="crpEsc" d="M172.84,256.83l18.66-3.12,18.66,3.12c2.52.45,3.84-.3,3.84-2.82v-9.19c0-2.56-1.63-3.46-4.37-2.33s-18.13,7-18.13,7-15.39-5.86-18.13-7-4.37-.23-4.37,2.33V254C169,256.53,170.32,257.29,172.84,256.83Z" />
    <circle class="crp" cx="192" cy="252" r="5" />
  </g>
</svg>