<svg xmlns='http://www.w3.org/2000/svg'>
  <g>
    <polygon class="crpClr" points="246 331 279 331 279 325.5 246 331" />
    <rect class="cmplEsc" x="261" y="327" width="1" height="4" />
    <path class="cmpl" d="M268.07,318h0l0-.06c-.09-.21-.18-.42-.28-.62-.71-1.65-2.31-6.13-1.08-10.62l-5,11.29-5-11.29c1.24,4.53-.4,9-1.1,10.66-.08.16-.16.33-.23.5l-.06.13h0a6.83,6.83,0,0,0-.47,3,7,7,0,0,0,6.93,6.39,6.89,6.89,0,0,0,6.36-9.42Z" />
    <polygon class="cmplEsc" points="261.66 317.89 263.48 313.79 263.48 313.78 261.66 306.6 259.83 313.78 259.83 313.79 261.66 317.89" />
  </g>
</svg>